<svg width="1200" height="900" viewBox="0 0 1200 900" fill="none" xmlns="http://www.w3.org/2000/svg">
  <defs>
    <linearGradient id="bg" x1="0" y1="0" x2="1" y2="1">
      <stop offset="0" stop-color="#EAF4F4"/>
      <stop offset="1" stop-color="#BCD4D7"/>
    </linearGradient>
    <linearGradient id="tooth" x1="0" y1="0" x2="0" y2="1">
      <stop offset="0" stop-color="#FFFFFF"/>
      <stop offset="1" stop-color="#E7F0F2"/>
    </linearGradient>
  </defs>
  <rect width="1200" height="900" fill="url(#bg)"/>
  <circle cx="260" cy="180" r="120" fill="#F2D5BC" opacity="0.5"/>
  <circle cx="1000" cy="700" r="180" fill="#9FC4C8" opacity="0.35"/>
  <rect x="180" y="250" width="840" height="470" rx="40" fill="#F9FCFC" stroke="#BFD5D8" stroke-width="6"/>
  <path d="M600 290c-72 0-143 30-143 104 0 101 50 196 143 196s143-95 143-196c0-74-71-104-143-104Zm0 350c-52 0-96 22-96 58v34h192v-34c0-36-44-58-96-58Z" fill="url(#tooth)" stroke="#A9C2C6" stroke-width="8"/>
  <path d="M522 454c14 27 43 45 78 45s64-18 78-45" stroke="#7AA4A8" stroke-width="10" stroke-linecap="round"/>
  <circle cx="562" cy="414" r="12" fill="#6D999D"/>
  <circle cx="638" cy="414" r="12" fill="#6D999D"/>
  <text x="600" y="820" text-anchor="middle" fill="#3D5A60" font-family="Arial, sans-serif" font-size="42" font-weight="700">Consultorio Dental</text>
</svg>
